<svg width="640" height="640" viewBox="0 0 640 640" fill="none" xmlns="http://www.w3.org/2000/svg">
<path d="M640 106.667L533.333 106.667M533.333 106.667L533.333 2.88219e-05M533.333 106.667L426.667 106.667M533.333 106.667L533.333 213.333M106.667 640L106.667 533.333M106.667 533.333L-6.69688e-05 533.333M106.667 533.333L213.333 533.333M106.667 533.333L106.667 426.667M640 533.333L533.333 533.333M533.333 533.333L533.333 640M533.333 533.333L426.667 533.333M533.333 533.333L533.333 426.667M426.667 533.333L426.667 426.667M426.667 533.333L320 533.333M426.667 533.333L426.667 640M426.667 426.667L533.333 426.667M426.667 426.667L426.667 320M426.667 426.667L320 426.667M533.333 426.667L533.333 320M533.333 426.667L640 426.667M426.667 320L533.333 320M426.667 320L426.667 213.333M426.667 320L320 320M533.333 320L533.333 213.333M533.333 320L640 320M426.667 213.333L533.333 213.333M426.667 213.333L426.667 106.667M426.667 213.333L320 213.333M533.333 213.333L640 213.333M426.667 106.667L320 106.667M426.667 106.667L426.667 1.94968e-05M320 533.333L320 426.667M320 533.333L320 640M320 533.333L213.333 533.333M320 426.667L320 320M320 426.667L213.333 426.667M320 320L320 213.333M320 320L213.333 320M320 213.333L320 106.667M320 213.333L213.333 213.333M320 106.667L320 1.01717e-05M320 106.667L213.333 106.667M106.667 426.667L106.667 320M106.667 426.667L-5.76438e-05 426.667M106.667 426.667L213.333 426.667M106.667 320L-4.83187e-05 320M106.667 320L213.333 320M106.667 320L106.667 213.333M213.333 533.333L213.333 426.667M213.333 533.333L213.333 640M213.333 426.667L213.333 320M213.333 320L213.333 213.333M213.333 213.333L213.333 106.667M213.333 213.333L106.667 213.333M213.333 106.667L106.667 106.667M213.333 106.667L213.333 8.46584e-07M106.667 213.333L106.667 106.667M106.667 213.333L-3.89936e-05 213.333M106.667 106.667L-2.96685e-05 106.667M106.667 106.667L106.667 -8.47851e-06" stroke="url(#paint0_linear_432_619)" stroke-opacity="0.5"/>
<defs>
<linearGradient id="paint0_linear_432_619" x1="510.5" y1="129.5" x2="3.6335e-05" y2="640" gradientUnits="userSpaceOnUse">
<stop stop-opacity="0"/>
<stop offset="1" stop-color="white"/>
</linearGradient>
</defs>
</svg>
