<?xml version="1.0" encoding="UTF-8"?>
<svg id="Capa_1" data-name="Capa 1" xmlns="http://www.w3.org/2000/svg" version="1.1" viewBox="0 0 637.2 177.2">
  <defs>
    <style>
      .cls-1 {
        fill: #fff;
        stroke-width: 0px;
      }
    </style>
  </defs>
  <polygon class="cls-1" points="0 25.3 0 50.6 43.8 25.3 87.7 50.6 87.7 25.3 43.8 0 0 25.3"/>
  <path class="cls-1" d="M32.9,120.3L0,101.3v25.3l43.8,25.3,43.8,25.3v-25.3l-21.9-12.7,21.9-12.7v-25.3l-32.9,19c-6.8,3.9-15.1,3.9-21.9,0Z"/>
  <path class="cls-1" d="M0,75.9v25.3l32.9-19c6.8-3.9,15.1-3.9,21.9,0l32.9,19v-25.3l-43.8-25.3L0,75.9Z"/>
  <path class="cls-1" d="M168,61.4c-12.3,0-19,5.3-20.9,15.3h-1v-14.3h-14.5v70.1h15.7v-31.8h.7c1.8,9.2,8.5,15.1,20.6,15.1s24.5-10.5,24.5-27.1-9-27.2-25.1-27.2ZM162.4,101.4c-9.8,0-15.2-3.1-15.2-12.1v-.8c0-9.3,5.2-12.7,15.3-12.7s14.6,3.2,14.6,12.8-4.7,12.8-14.7,12.8Z"/>
  <path class="cls-1" d="M232.5,61.4c-10.5,0-16.1,6.5-17.5,14.9h-.9v-13.9h-14.5v52.3h15.7v-30.3c0-6.6,2.5-9.8,9.5-9.8s8.7,2.5,8.7,8.2v5.4h15.7v-8.7c0-10.2-4.8-18.3-16.5-18.3Z"/>
  <path class="cls-1" d="M282.1,61.4c-17.2,0-29,10.5-29,27.2s11.9,27.1,29.3,27.1,27.7-7.9,27.7-19.3v-1.1h-15.7v1c0,4.5-3.2,6.9-12.5,6.9s-13.9-3.4-14.3-11.5h42.6c.2-1.8.4-3.1.4-5,0-16.4-11.4-25.4-28.5-25.4ZM267.8,83.5c.7-6.8,4.7-9.9,14-9.9s13.4,3,13.8,9.9h-27.8Z"/>
  <path class="cls-1" d="M361.3,76.3h-.9c-1.8-8.8-8.1-14.9-20.6-14.9s-24.4,10.5-24.4,27.2,9,27.1,25.3,27.1,18.9-5.2,20.9-15.6h.8v14.5h14.6V44.8h-15.7v31.5ZM361.3,88.9c0,9.1-5.4,12.5-15.3,12.5s-14.7-3.3-14.7-12.8,4.7-12.9,14.7-12.9,15.3,3.3,15.3,12.4v.8Z"/>
  <rect class="cls-1" x="385.3" y="44.8" width="15.7" height="12.3"/>
  <rect class="cls-1" x="385.3" y="62.4" width="15.7" height="52.3"/>
  <path class="cls-1" d="M437,61.4c-18,0-29.4,10.5-29.4,27.2s11.5,27.1,29.4,27.1,28.3-9.1,28.3-22.5v-1.5h-15.6v.8c0,6.7-4.9,9.1-13,9.1s-13.6-3.4-13.6-13.1,4.3-13.2,13.6-13.2,13,2.4,13,9.1v.8h15.6v-1.5c0-13.6-11.5-22.5-28.3-22.5Z"/>
  <path class="cls-1" d="M492.1,52.3h-15.7v10.1h-8.2v12.9h8.2v20.5c0,13.2,7.4,18.9,19.6,18.9h12.9v-14.1h-9.4c-5.5,0-7.5-1.4-7.5-6.6v-18.7h16.9v-12.9h-16.9v-10.1Z"/>
  <path class="cls-1" d="M542.3,61.4c-17.2,0-29,10.5-29,27.2s11.9,27.1,29.3,27.1,27.7-7.9,27.7-19.3v-1.1h-15.7v1c0,4.5-3.2,6.9-12.5,6.9s-13.9-3.4-14.3-11.5h42.6c.2-1.8.4-3.1.4-5,0-16.4-11.4-25.4-28.5-25.4ZM528,83.5c.7-6.8,4.7-9.9,14-9.9s13.4,3,13.8,9.9h-27.8Z"/>
  <path class="cls-1" d="M621.5,44.8v31.5h-.9c-1.8-8.8-8.1-14.9-20.6-14.9s-24.4,10.5-24.4,27.2,9,27.1,25.3,27.1,18.9-5.2,20.9-15.6h.8v14.5h14.6V44.8h-15.7ZM621.5,88.9c0,9.1-5.4,12.5-15.3,12.5s-14.7-3.3-14.7-12.8,4.7-12.9,14.7-12.9,15.3,3.3,15.3,12.4v.8Z"/>
</svg>